<svg width="576" height="385" viewBox="0 0 576 385" fill="none" xmlns="http://www.w3.org/2000/svg">
<path d="M477.929 204.917C477.929 296.111 392.895 370.038 288.001 370.038C183.107 370.038 98.0725 296.111 98.0725 204.917C98.0725 113.722 183.107 39.7944 288.001 39.7944C392.895 39.7944 477.929 113.722 477.929 204.917Z" fill="#2A59D6"/>
<path d="M492.123 204.917C492.123 302.926 400.733 382.379 288.001 382.379C175.267 382.379 83.8815 302.926 83.8815 204.917C83.8815 106.907 175.267 27.4556 288.001 27.4556C400.733 27.4556 492.123 106.907 492.123 204.917Z" stroke="#28282C" stroke-width="1.88" stroke-miterlimit="10"/>
<path d="M342.43 77.4184C318.69 77.4184 299.374 60.6254 299.374 39.9853C299.374 19.3435 318.69 2.55225 342.43 2.55225C366.171 2.55225 385.483 19.3435 385.483 39.9853C385.483 60.6254 366.171 77.4184 342.43 77.4184Z" fill="#28282C"/>
<path d="M342.43 4.2325C365.143 4.2325 383.551 20.2393 383.551 39.9856C383.551 59.732 365.143 75.7387 342.43 75.7387C319.718 75.7387 301.306 59.732 301.306 39.9856C301.306 20.2393 319.718 4.2325 342.43 4.2325ZM342.43 0.872559C317.623 0.872559 297.441 18.4182 297.441 39.9856C297.441 61.5531 317.623 79.0987 342.43 79.0987C367.238 79.0987 387.415 61.5531 387.415 39.9856C387.415 18.4182 367.238 0.872559 342.43 0.872559Z" fill="white"/>
<path d="M325.115 46.6805L327.603 44.0782C328.883 45.5986 330.429 46.4167 332.278 46.4167C334.701 46.4167 335.943 45.1618 335.943 42.6468V32.0614H327.571V28.8711H340.314V42.4402C340.314 47.2651 337.557 49.6355 332.378 49.6355C329.42 49.6355 326.73 48.5805 325.115 46.6805Z" fill="white"/>
<path d="M343.994 47.7912L345.607 45.0159C347.19 45.9214 349.611 46.5665 351.864 46.5665C354.521 46.5665 355.63 45.9197 355.63 44.8378C355.63 41.8559 344.531 44.6648 344.531 38.4354C344.531 35.482 347.592 33.5518 352.436 33.5518C354.822 33.5518 357.547 34.0473 359.164 34.8957L357.547 37.6761C355.833 36.7991 354.117 36.5035 352.403 36.5035C349.847 36.5035 348.635 37.2359 348.635 38.2607C348.635 41.4191 359.734 38.6118 359.734 44.7219C359.734 47.6467 356.641 49.5451 351.594 49.5451C348.6 49.5451 345.607 48.7857 343.994 47.7912Z" fill="white"/>
<path d="M248.476 64.5317C229.069 64.5317 213.279 50.8041 213.279 33.9321C213.279 17.0601 229.069 3.33252 248.476 3.33252C267.882 3.33252 283.672 17.0601 283.672 33.9321C283.672 50.8041 267.882 64.5317 248.476 64.5317Z" fill="#1E40AF"/>
<path d="M248.475 4.60781C267.104 4.60781 282.206 17.7376 282.206 33.9328C282.206 50.128 267.104 63.2577 248.475 63.2577C229.847 63.2577 214.745 50.128 214.745 33.9328C214.745 17.7376 229.847 4.60781 248.475 4.60781ZM248.475 2.05859C228.26 2.05859 211.813 16.3572 211.813 33.9328C211.813 51.5084 228.26 65.807 248.475 65.807C268.691 65.807 285.138 51.5084 285.138 33.9328C285.138 16.3572 268.691 2.05859 248.475 2.05859Z" fill="white"/>
<path d="M229.057 33.7911C229.057 29.6001 232.746 26.5742 237.704 26.5742C240.333 26.5742 242.592 27.3951 244.093 28.9182L242.157 30.5038C240.981 29.4013 239.526 28.8596 237.843 28.8596C234.499 28.8596 232.077 30.9028 232.077 33.7911C232.077 36.6781 234.499 38.7251 237.843 38.7251C239.526 38.7251 240.981 38.1834 242.157 37.0604L244.093 38.6652C242.592 40.1896 240.333 41.0105 237.682 41.0105C232.746 41.0105 229.057 37.982 229.057 33.7911Z" fill="white"/>
<path d="M256.41 34.6426H252.947V37.6175H250.855V34.6426H247.394V32.9422H250.855V29.9673H252.947V32.9422H256.41V34.6426Z" fill="white"/>
<path d="M267.897 34.6426H264.434V37.6175H262.342V34.6426H258.88V32.9422H262.342V29.9673H264.434V32.9422H267.897V34.6426Z" fill="white"/>
<path d="M165.455 89.306C149.42 89.306 136.375 77.9656 136.375 64.0251C136.375 50.0838 149.42 38.7427 165.455 38.7427C181.491 38.7427 194.535 50.0838 194.535 64.0251C194.535 77.9656 181.491 89.306 165.455 89.306Z" fill="#28282C"/>
<path d="M165.455 39.452C181.065 39.452 193.719 50.4539 193.719 64.0254C193.719 77.5962 181.065 88.5975 165.455 88.5975C149.846 88.5975 137.192 77.5962 137.192 64.0254C137.192 50.4539 149.846 39.452 165.455 39.452ZM165.455 38.0327C148.971 38.0327 135.559 49.6932 135.559 64.0254C135.559 78.3569 148.971 90.0167 165.455 90.0167C181.94 90.0167 195.351 78.3569 195.351 64.0254C195.351 49.6932 181.94 38.0327 165.455 38.0327Z" fill="white"/>
<path d="M155.629 60.6753V68.308H153.998V65.0366H149.457V68.308H147.827V60.6753H149.457V63.826H153.998V60.6753H155.629Z" fill="white"/>
<path d="M159.764 61.8743H156.854V60.6758H164.304V61.8743H161.394V68.307H159.764V61.8743Z" fill="white"/>
<path d="M173.595 68.308L173.581 63.2491L170.697 67.4359H169.97L167.085 63.3137V68.308H165.53V60.6753H166.871L170.359 65.7349L173.782 60.6753H175.125L175.137 68.308H173.595Z" fill="white"/>
<path d="M177.503 60.6753H179.133V67.1087H183.723V68.308H177.503V60.6753Z" fill="white"/>
<path d="M416.543 208.724C400.824 208.724 388.034 197.604 388.034 183.938C388.034 170.272 400.824 159.152 416.543 159.152C432.263 159.152 445.052 170.272 445.052 183.938C445.052 197.604 432.263 208.724 416.543 208.724Z" fill="#1E40AF"/>
<path d="M416.543 160.184C431.632 160.184 443.865 170.82 443.865 183.938C443.865 197.056 431.632 207.691 416.543 207.691C401.453 207.691 389.222 197.056 389.222 183.938C389.222 170.82 401.453 160.184 416.543 160.184ZM416.543 158.12C400.168 158.12 386.847 169.701 386.847 183.938C386.847 198.174 400.168 209.756 416.543 209.756C432.918 209.756 446.24 198.174 446.24 183.938C446.24 169.701 432.918 158.12 416.543 158.12Z" fill="white"/>
<path d="M400.148 183.825C400.148 180.693 402.904 178.431 406.611 178.431C408.576 178.431 410.264 179.045 411.385 180.184L409.936 181.367C409.058 180.544 407.973 180.139 406.714 180.139C404.217 180.139 402.406 181.667 402.406 183.825C402.406 185.981 404.217 187.509 406.714 187.509C407.973 187.509 409.058 187.106 409.936 186.267L411.385 187.465C410.264 188.604 408.576 189.218 406.594 189.218C402.904 189.218 400.148 186.956 400.148 183.825Z" fill="white"/>
<path d="M412.46 187.959L413.236 186.447C414.2 187.121 415.734 187.6 417.215 187.6C419.095 187.6 419.887 187.016 419.887 186.237C419.887 183.975 412.717 185.458 412.717 181.563C412.717 179.87 414.268 178.431 417.579 178.431C419.025 178.431 420.542 178.76 421.591 179.359L420.886 180.873C419.801 180.318 418.612 180.049 417.561 180.049C415.701 180.049 414.94 180.679 414.94 181.473C414.94 183.705 422.091 182.251 422.091 186.102C422.091 187.78 420.524 189.218 417.215 189.218C415.339 189.218 413.459 188.709 412.46 187.959Z" fill="white"/>
<path d="M423.304 187.959L424.078 186.447C425.045 187.121 426.578 187.6 428.06 187.6C429.939 187.6 430.732 187.016 430.732 186.237C430.732 183.975 423.563 185.458 423.563 181.563C423.563 179.87 425.112 178.431 428.422 178.431C429.87 178.431 431.387 178.76 432.437 179.359L431.731 180.873C430.646 180.318 429.456 180.049 428.405 180.049C426.545 180.049 425.786 180.679 425.786 181.473C425.786 183.705 432.937 182.251 432.937 186.102C432.937 187.78 431.368 189.218 428.06 189.218C426.182 189.218 424.304 188.709 423.304 187.959Z" fill="white"/>
<path d="M418.404 100.651C401.347 100.651 387.469 88.586 387.469 73.7566C387.469 58.9259 401.347 46.8618 418.404 46.8618C435.462 46.8618 449.339 58.9259 449.339 73.7566C449.339 88.586 435.462 100.651 418.404 100.651Z" fill="#1E40AF"/>
<path d="M418.404 48.0688C434.723 48.0688 447.951 59.5693 447.951 73.7565C447.951 87.9438 434.723 99.4443 418.404 99.4443C402.086 99.4443 388.858 87.9438 388.858 73.7565C388.858 59.5693 402.086 48.0688 418.404 48.0688ZM418.404 45.6548C400.581 45.6548 386.081 58.2609 386.081 73.7565C386.081 89.2522 400.581 101.858 418.404 101.858C436.228 101.858 450.728 89.2522 450.728 73.7565C450.728 58.2609 436.228 45.6548 418.404 45.6548Z" fill="white"/>
<path d="M411.454 72.4588C411.454 74.4371 409.77 75.6574 407.05 75.6574H404.717V78.2525H402.794V69.2603H407.05C409.77 69.2603 411.454 70.4685 411.454 72.4588ZM409.518 72.4588C409.518 71.3291 408.647 70.6737 406.962 70.6737H404.717V74.2452H406.962C408.647 74.2452 409.518 73.5898 409.518 72.4588Z" fill="white"/>
<path d="M422.571 69.2603V78.2525H420.649V74.3985H415.301V78.2525H413.38V69.2603H415.301V72.973H420.649V69.2603H422.571Z" fill="white"/>
<path d="M434.015 72.4588C434.015 74.4371 432.331 75.6574 429.611 75.6574H427.277V78.2525H425.354V69.2603H429.611C432.331 69.2603 434.015 70.4685 434.015 72.4588ZM432.078 72.4588C432.078 71.3291 431.208 70.6737 429.522 70.6737H427.277V74.2452H429.522C431.208 74.2452 432.078 73.5898 432.078 72.4588Z" fill="white"/>
<path d="M84.2549 103.583C84.2549 105.566 82.4063 107.173 80.125 107.173C77.8436 107.173 75.9923 105.566 75.9923 103.583C75.9923 101.599 77.8436 99.9922 80.125 99.9922C82.4063 99.9922 84.2549 101.599 84.2549 103.583Z" fill="#28282C"/>
<path d="M111.11 372.997C111.11 374.192 109.997 375.16 108.624 375.16C107.251 375.16 106.136 374.192 106.136 372.997C106.136 371.803 107.251 370.835 108.624 370.835C109.997 370.835 111.11 371.803 111.11 372.997Z" fill="#28282C"/>
<path d="M18.4748 339.335C18.4748 340.529 17.3612 341.498 15.9876 341.498C14.614 341.498 13.5004 340.529 13.5004 339.335C13.5004 338.142 14.614 337.173 15.9876 337.173C17.3612 337.173 18.4748 338.142 18.4748 339.335Z" fill="#048970"/>
<path d="M431.248 374.428C431.248 376.411 429.4 378.018 427.118 378.018C424.837 378.018 422.986 376.411 422.986 374.428C422.986 372.444 424.837 370.835 427.118 370.835C429.4 370.835 431.248 372.444 431.248 374.428Z" fill="#28282C"/>
<path d="M437.946 44.2446C437.946 46.8257 435.54 48.9169 432.572 48.9169C429.604 48.9169 427.197 46.8257 427.197 44.2446C427.197 41.6635 429.604 39.5723 432.572 39.5723C435.54 39.5723 437.946 41.6635 437.946 44.2446Z" stroke="#28282C" stroke-width="1.88" stroke-miterlimit="10"/>
<path d="M144.708 50.2818C144.708 51.7604 143.329 52.9581 141.63 52.9581C139.929 52.9581 138.549 51.7604 138.549 50.2818C138.549 48.8031 139.929 47.6055 141.63 47.6055C143.329 47.6055 144.708 48.8031 144.708 50.2818Z" fill="white"/>
<path d="M501.831 110.576C501.831 111.536 500.934 112.316 499.828 112.316C498.724 112.316 497.828 111.536 497.828 110.576C497.828 109.614 498.724 108.835 499.828 108.835C500.934 108.835 501.831 109.614 501.831 110.576Z" fill="white"/>
<path d="M146.71 372.575C146.71 373.536 145.813 374.315 144.707 374.315C143.603 374.315 142.707 373.536 142.707 372.575C142.707 371.615 143.603 370.835 144.707 370.835C145.813 370.835 146.71 371.615 146.71 372.575Z" fill="white"/>
<path d="M432.164 24.4741C432.164 25.4354 431.267 26.2143 430.161 26.2143C429.057 26.2143 428.161 25.4354 428.161 24.4741C428.161 23.5139 429.057 22.7339 430.161 22.7339C431.267 22.7339 432.164 23.5139 432.164 24.4741Z" fill="white"/>
<path d="M411.258 382.378C411.258 383.338 410.361 384.119 409.255 384.119C408.151 384.119 407.255 383.338 407.255 382.378C407.255 381.416 408.151 380.636 409.255 380.636C410.361 380.636 411.258 381.416 411.258 382.378Z" fill="white"/>
<path d="M31.8821 324.57C31.8821 325.531 30.9848 326.31 29.8804 326.31C28.776 326.31 27.8788 325.531 27.8788 324.57C27.8788 323.61 28.776 322.83 29.8804 322.83C30.9848 322.83 31.8821 323.61 31.8821 324.57Z" fill="white"/>
<path d="M167.537 377.706C167.537 380.285 165.13 382.378 162.162 382.378C159.194 382.378 156.788 380.285 156.788 377.706C156.788 375.124 159.194 373.033 162.162 373.033C165.13 373.033 167.537 375.124 167.537 377.706Z" stroke="#282727" stroke-width="1.88" stroke-miterlimit="10"/>
<path d="M489.523 103.583C489.523 105.154 488.057 106.429 486.249 106.429C484.44 106.429 482.976 105.154 482.976 103.583C482.976 102.011 484.44 100.737 486.249 100.737C488.057 100.737 489.523 102.011 489.523 103.583Z" stroke="#282727" stroke-width="1.88" stroke-miterlimit="10"/>
<path d="M83.3972 72.5936C83.3972 74.1652 81.9326 75.4397 80.1249 75.4397C78.3159 75.4397 76.85 74.1652 76.85 72.5936C76.85 71.022 78.3159 69.7476 80.1249 69.7476C81.9326 69.7476 83.3972 71.022 83.3972 72.5936Z" stroke="#282727" stroke-width="1.88" stroke-miterlimit="10"/>
<path d="M560.012 363.239H15.9876L73.8429 315.433H502.157L560.012 363.239Z" fill="#282727"/>
<path d="M560.012 363.239V354.919L540.233 353.708L541.624 358.474L560.012 363.239Z" fill="#282727"/>
<path d="M15.9889 363.239V354.919L35.768 353.708L34.3772 358.474L15.9889 363.239Z" fill="#282727"/>
<path d="M560.012 354.92H15.9876L75.0383 308.153H503.354L560.012 354.92Z" fill="#282727"/>
<path d="M386.983 348.327H190.734L208.818 330.934H368.9L386.983 348.327Z" fill="#CABEDD"/>
<path d="M386.984 348.327V345.908L381.663 345.147V346.986L386.984 348.327Z" fill="#CABEDD"/>
<path d="M190.734 348.328V345.908L196.566 344.389V346.358L193.105 347.434L190.734 348.328Z" fill="#CABEDD"/>
<path d="M386.984 345.908H190.734L208.818 328.515H368.9L386.984 345.908Z" fill="white"/>
<path d="M221.528 331.397H208.398L210.48 329.328H223.272L221.528 331.397Z" fill="#E0DAEA"/>
<path d="M237.878 331.397H224.747L226.407 329.328H239.198L237.878 331.397Z" fill="#E0DAEA"/>
<path d="M254.228 331.397H241.096L242.333 329.328H255.125L254.228 331.397Z" fill="#E0DAEA"/>
<path d="M270.579 331.397H257.447L258.26 329.328H271.051L270.579 331.397Z" fill="#E0DAEA"/>
<path d="M286.927 331.397H273.796L274.186 329.328H286.977L286.927 331.397Z" fill="#E0DAEA"/>
<path d="M303.278 331.397H290.147L290.112 329.328H302.905L303.278 331.397Z" fill="#E0DAEA"/>
<path d="M319.628 331.397H306.496L306.04 329.328H318.831L319.628 331.397Z" fill="#E0DAEA"/>
<path d="M335.979 331.397H322.846L321.966 329.328H334.757L335.979 331.397Z" fill="#E0DAEA"/>
<path d="M352.327 331.397H339.195L337.892 329.328H350.683L352.327 331.397Z" fill="#E0DAEA"/>
<path d="M368.678 331.397H355.546L353.818 329.328H366.611L368.678 331.397Z" fill="#E0DAEA"/>
<path d="M219.089 334.291H205.48L207.715 332.072H220.96L219.089 334.291Z" fill="#E0DAEA"/>
<path d="M236.031 334.291H222.423L224.203 332.072H237.447L236.031 334.291Z" fill="#E0DAEA"/>
<path d="M252.973 334.291H239.365L240.691 332.072H253.935L252.973 334.291Z" fill="#E0DAEA"/>
<path d="M269.915 334.291H256.306L257.18 332.072H270.424L269.915 334.291Z" fill="#E0DAEA"/>
<path d="M286.859 334.291H273.251L273.669 332.072H286.91L286.859 334.291Z" fill="#E0DAEA"/>
<path d="M303.801 334.291H290.193L290.157 332.072H303.4L303.801 334.291Z" fill="#E0DAEA"/>
<path d="M320.744 334.291H307.135L306.644 332.072H319.889L320.744 334.291Z" fill="#E0DAEA"/>
<path d="M337.685 334.291H324.077L323.134 332.072H336.376L337.685 334.291Z" fill="#E0DAEA"/>
<path d="M354.629 334.291H341.019L339.621 332.072H352.864L354.629 334.291Z" fill="#E0DAEA"/>
<path d="M371.571 334.291H357.962L356.109 332.072H369.351L371.571 334.291Z" fill="#E0DAEA"/>
<path d="M216.463 337.405H202.343L204.749 335.019H218.475L216.463 337.405Z" fill="#E0DAEA"/>
<path d="M234.042 337.405H219.924L221.84 335.019H235.565L234.042 337.405Z" fill="#E0DAEA"/>
<path d="M251.622 337.405H237.503L238.93 335.019H252.656L251.622 337.405Z" fill="#E0DAEA"/>
<path d="M269.203 337.405H255.084L256.022 335.019H269.749L269.203 337.405Z" fill="#E0DAEA"/>
<path d="M286.782 337.405H272.664L273.114 335.019H286.84L286.782 337.405Z" fill="#E0DAEA"/>
<path d="M304.361 337.405H290.243L290.203 335.019H303.931L304.361 337.405Z" fill="#E0DAEA"/>
<path d="M321.944 337.405H307.823L307.295 335.019H321.023L321.944 337.405Z" fill="#E0DAEA"/>
<path d="M339.523 337.405H325.402L324.386 335.019H338.114L339.523 337.405Z" fill="#E0DAEA"/>
<path d="M357.103 337.405H342.981L341.477 335.019H355.205L357.103 337.405Z" fill="#E0DAEA"/>
<path d="M374.683 337.405H360.562L358.57 335.019H372.298L374.683 337.405Z" fill="#E0DAEA"/>
<path d="M213.634 340.761H198.963L201.557 338.187H215.805L213.634 340.761Z" fill="#E0DAEA"/>
<path d="M231.901 340.761H217.23L219.295 338.187H233.544L231.901 340.761Z" fill="#E0DAEA"/>
<path d="M250.168 340.761H235.496L237.035 338.187H251.283L250.168 340.761Z" fill="#E0DAEA"/>
<path d="M268.435 340.761H253.765L254.775 338.187H269.023L268.435 340.761Z" fill="#E0DAEA"/>
<path d="M286.7 340.761H272.03L272.516 338.187H286.764L286.7 340.761Z" fill="#E0DAEA"/>
<path d="M304.969 340.761H290.297L290.256 338.187H304.503L304.969 340.761Z" fill="#E0DAEA"/>
<path d="M323.235 340.761H308.564L307.995 338.187H322.245L323.235 340.761Z" fill="#E0DAEA"/>
<path d="M341.502 340.761H326.832L325.737 338.187H339.985L341.502 340.761Z" fill="#E0DAEA"/>
<path d="M359.768 340.761H345.098L343.475 338.187H357.723L359.768 340.761Z" fill="#E0DAEA"/>
<path d="M378.036 340.761H363.365L361.215 338.187H375.464L378.036 340.761Z" fill="#E0DAEA"/>
<path d="M210.575 344.39H195.306L198.112 341.605H212.921L210.575 344.39Z" fill="#E0DAEA"/>
<path d="M229.584 344.39H214.316L216.55 341.605H231.361L229.584 344.39Z" fill="#E0DAEA"/>
<path d="M343.644 344.39H233.327L234.991 341.605H342.001L343.644 344.39Z" fill="#E0DAEA"/>
<path d="M362.654 344.39H347.384L345.63 341.605H360.439L362.654 344.39Z" fill="#E0DAEA"/>
<path d="M381.665 344.39H366.396L364.071 341.605H378.881L381.665 344.39Z" fill="#E0DAEA"/>
<path d="M367.618 317.954C367.618 321.609 329.944 324.57 283.473 324.57C236.999 324.57 199.328 321.609 199.328 317.954C199.328 314.3 236.999 311.338 283.473 311.338C329.944 311.338 367.618 314.3 367.618 317.954Z" fill="#282727"/>
<path d="M172.391 322.949C172.391 326.603 144.576 333.409 110.267 338.151C75.9593 342.894 48.146 343.776 48.146 340.123C48.146 336.47 75.9593 329.664 110.267 324.921C144.576 320.179 172.391 319.296 172.391 322.949Z" fill="#282727"/>
<path d="M403.612 322.949C403.612 326.603 431.422 333.409 465.732 338.151C500.041 342.894 527.854 343.776 527.854 340.123C527.854 336.47 500.041 329.664 465.732 324.921C431.422 320.179 403.612 319.296 403.612 322.949Z" fill="#282727"/>
<path d="M299.576 317.198H276.424V272.895H299.576V317.198Z" fill="#E7E2FF"/>
<path d="M299.576 305.597H276.424V272.896H299.576V305.597Z" fill="#CFC9FF"/>
<path d="M332.986 317.954H243.014V314.928H332.986V317.954Z" fill="#B5ABEE"/>
<path d="M326.937 311.185H249.063L243.014 314.929H332.986L326.937 311.185Z" fill="#E7E2FF"/>
<path d="M392.222 300.555H183.778V132.12H392.222V300.555Z" fill="#424346"/>
<path d="M389.162 297.523H186.838V135.154H389.162V297.523Z" fill="#28282C"/>
<path d="M242.648 201.316H335.215" stroke="#424346" stroke-width="1.38556" stroke-miterlimit="10" stroke-linecap="round"/>
<path d="M342.853 201.316H361.135" stroke="#424346" stroke-width="1.38556" stroke-miterlimit="10" stroke-linecap="round"/>
<path d="M242.648 247.068H335.215" stroke="#424346" stroke-width="1.38556" stroke-miterlimit="10" stroke-linecap="round"/>
<path d="M342.853 247.068H373.632" stroke="#424346" stroke-width="1.38556" stroke-miterlimit="10" stroke-linecap="round"/>
<path d="M263.245 150.623H335.216" stroke="#424346" stroke-width="1.38556" stroke-miterlimit="10" stroke-linecap="round"/>
<path d="M342.853 150.623H354.193" stroke="#424346" stroke-width="1.38556" stroke-miterlimit="10" stroke-linecap="round"/>
<path d="M263.245 154.649H335.216" stroke="#424346" stroke-width="1.38556" stroke-miterlimit="10" stroke-linecap="round"/>
<path d="M342.853 154.649H362.523" stroke="#424346" stroke-width="1.38556" stroke-miterlimit="10" stroke-linecap="round"/>
<path d="M263.245 158.676H335.216" stroke="#424346" stroke-width="1.38556" stroke-miterlimit="10" stroke-linecap="round"/>
<path d="M342.853 158.676H354.193" stroke="#424346" stroke-width="1.38556" stroke-miterlimit="10" stroke-linecap="round"/>
<path d="M263.245 162.703H335.216" stroke="#424346" stroke-width="1.38556" stroke-miterlimit="10" stroke-linecap="round"/>
<path d="M342.853 162.703H362.523" stroke="#424346" stroke-width="1.38556" stroke-miterlimit="10" stroke-linecap="round"/>
<path d="M290.321 171.67H335.215" stroke="#424346" stroke-width="1.38556" stroke-miterlimit="10" stroke-linecap="round"/>
<path d="M342.853 171.67H366.689" stroke="#424346" stroke-width="1.38556" stroke-miterlimit="10" stroke-linecap="round"/>
<path d="M290.321 176.611H335.215" stroke="#424346" stroke-width="1.38556" stroke-miterlimit="10" stroke-linecap="round"/>
<path d="M342.853 176.611H366.689" stroke="#424346" stroke-width="1.38556" stroke-miterlimit="10" stroke-linecap="round"/>
<path d="M290.321 181.552H325.959" stroke="#424346" stroke-width="1.38556" stroke-miterlimit="10" stroke-linecap="round"/>
<path d="M333.596 181.552H366.689" stroke="#E9E4E4" stroke-width="1.38556" stroke-miterlimit="10" stroke-linecap="round"/>
<path d="M290.321 186.493H335.215" stroke="#424346" stroke-width="1.38556" stroke-miterlimit="10" stroke-linecap="round"/>
<path d="M342.853 186.493H366.689" stroke="#E9E4E4" stroke-width="1.38556" stroke-miterlimit="10" stroke-linecap="round"/>
<path d="M290.321 191.434H325.959" stroke="#424346" stroke-width="1.38556" stroke-miterlimit="10" stroke-linecap="round"/>
<path d="M333.596 191.434H366.689" stroke="#424346" stroke-width="1.38556" stroke-miterlimit="10" stroke-linecap="round"/>
<path d="M290.321 196.376H335.215" stroke="#424346" stroke-width="1.38556" stroke-miterlimit="10" stroke-linecap="round"/>
<path d="M342.853 196.376H366.689" stroke="#424346" stroke-width="1.38556" stroke-miterlimit="10" stroke-linecap="round"/>
<path d="M301.661 207.906H346.555" stroke="#424346" stroke-width="1.38556" stroke-miterlimit="10" stroke-linecap="round"/>
<path d="M354.193 207.906H378.028" stroke="#424346" stroke-width="1.38556" stroke-miterlimit="10" stroke-linecap="round"/>
<path d="M301.661 212.846H333.596" stroke="#424346" stroke-width="1.38556" stroke-miterlimit="10" stroke-linecap="round"/>
<path d="M341.233 212.846H378.028" stroke="#E9E4E4" stroke-width="1.38556" stroke-miterlimit="10" stroke-linecap="round"/>
<path d="M319.943 224.193H333.597" stroke="#424346" stroke-width="1.38556" stroke-miterlimit="10" stroke-linecap="round"/>
<path d="M341.233 224.193H366.689" stroke="#E9E4E4" stroke-width="1.38556" stroke-miterlimit="10" stroke-linecap="round"/>
<path d="M324.109 228.768H333.596" stroke="#424346" stroke-width="1.38556" stroke-miterlimit="10" stroke-linecap="round"/>
<path d="M341.233 228.768H373.632" stroke="#424346" stroke-width="1.38556" stroke-miterlimit="10" stroke-linecap="round"/>
<path d="M319.943 233.343H333.597" stroke="#424346" stroke-width="1.38556" stroke-miterlimit="10" stroke-linecap="round"/>
<path d="M341.233 233.343H366.689" stroke="#424346" stroke-width="1.38556" stroke-miterlimit="10" stroke-linecap="round"/>
<path d="M335.182 219.428H242.615" stroke="#424346" stroke-width="1.38556" stroke-miterlimit="10" stroke-linecap="round"/>
<path d="M234.979 219.428H216.698" stroke="#424346" stroke-width="1.38556" stroke-miterlimit="10" stroke-linecap="round"/>
<path d="M335.182 173.676H242.615" stroke="#424346" stroke-width="1.38556" stroke-miterlimit="10" stroke-linecap="round"/>
<path d="M234.979 173.676H204.201" stroke="#424346" stroke-width="1.38556" stroke-miterlimit="10" stroke-linecap="round"/>
<path d="M314.586 270.121H242.615" stroke="#424346" stroke-width="1.38556" stroke-miterlimit="10" stroke-linecap="round"/>
<path d="M234.979 270.121H223.64" stroke="#424346" stroke-width="1.38556" stroke-miterlimit="10" stroke-linecap="round"/>
<path d="M279.261 266.095C261.051 266.095 242.615 266.095 242.615 266.095" stroke="#424346" stroke-width="1.38556" stroke-miterlimit="10" stroke-linecap="round"/>
<path d="M287.51 249.075C287.51 249.075 286.797 249.075 285.548 249.075" stroke="#424346" stroke-width="1.38556" stroke-miterlimit="10" stroke-linecap="round"/>
<path d="M234.979 249.075H211.144" stroke="#E9E4E4" stroke-width="1.38556" stroke-miterlimit="10" stroke-linecap="round"/>
<path d="M287.51 244.135H242.615" stroke="#424346" stroke-width="1.38556" stroke-miterlimit="10" stroke-linecap="round"/>
<path d="M234.979 244.135H211.144" stroke="#424346" stroke-width="1.38556" stroke-miterlimit="10" stroke-linecap="round"/>
<path d="M287.51 239.193H251.871" stroke="#424346" stroke-width="1.38556" stroke-miterlimit="10" stroke-linecap="round"/>
<path d="M244.237 239.193H211.144" stroke="#E9E4E4" stroke-width="1.38556" stroke-miterlimit="10" stroke-linecap="round"/>
<path d="M287.51 234.251H242.615" stroke="#424346" stroke-width="1.38556" stroke-miterlimit="10" stroke-linecap="round"/>
<path d="M234.979 234.251H211.144" stroke="#424346" stroke-width="1.38556" stroke-miterlimit="10" stroke-linecap="round"/>
<path d="M287.51 229.311H251.871" stroke="#424346" stroke-width="1.38556" stroke-miterlimit="10" stroke-linecap="round"/>
<path d="M244.237 229.311H211.144" stroke="#424346" stroke-width="1.38556" stroke-miterlimit="10" stroke-linecap="round"/>
<path d="M287.51 224.369H242.615" stroke="#424346" stroke-width="1.38556" stroke-miterlimit="10" stroke-linecap="round"/>
<path d="M234.979 224.369H211.144" stroke="#424346" stroke-width="1.38556" stroke-miterlimit="10" stroke-linecap="round"/>
<path d="M276.172 212.84H231.277" stroke="#424346" stroke-width="1.38556" stroke-miterlimit="10" stroke-linecap="round"/>
<path d="M223.64 212.84H199.805" stroke="#E9E4E4" stroke-width="1.38556" stroke-miterlimit="10" stroke-linecap="round"/>
<path d="M276.172 207.899H244.237" stroke="#424346" stroke-width="1.38556" stroke-miterlimit="10" stroke-linecap="round"/>
<path d="M236.6 207.899H199.803" stroke="#424346" stroke-width="1.38556" stroke-miterlimit="10" stroke-linecap="round"/>
<path d="M257.889 196.552H244.235" stroke="#424346" stroke-width="1.38556" stroke-miterlimit="10" stroke-linecap="round"/>
<path d="M236.6 196.552H211.143" stroke="#424346" stroke-width="1.38556" stroke-miterlimit="10" stroke-linecap="round"/>
<path d="M253.724 191.977H244.237" stroke="#424346" stroke-width="1.38556" stroke-miterlimit="10" stroke-linecap="round"/>
<path d="M236.6 191.977H204.201" stroke="#424346" stroke-width="1.38556" stroke-miterlimit="10" stroke-linecap="round"/>
<path d="M257.889 187.401H244.235" stroke="#424346" stroke-width="1.38556" stroke-miterlimit="10" stroke-linecap="round"/>
<path d="M236.6 187.401H211.143" stroke="#E9E4E4" stroke-width="1.38556" stroke-miterlimit="10" stroke-linecap="round"/>
<path d="M151.924 328.526L77.8712 339.634L70.6735 335.675L144.725 324.57L151.924 328.526Z" fill="#B5ABEE"/>
<path d="M151.926 328.527V326L146.533 325.594L145.838 328.54L151.926 328.527Z" fill="#B5ABEE"/>
<path d="M70.6748 333.15V335.678L73.8864 335.883L76.2351 335.656L75.5832 334.143L70.6748 333.15Z" fill="#B5ABEE"/>
<path d="M151.926 325.999L77.8739 337.106L70.6748 333.148L144.728 322.044L151.926 325.999Z" fill="#E7E2FF"/>
<path d="M119.781 326.331L96.629 329.877V258.708H119.781V326.331Z" fill="#B5ABEE"/>
<path d="M96.629 329.877L100.672 331.754L103.292 328.842L101.987 325.323L97.81 328.129L96.629 329.877Z" fill="#B5ABEE"/>
<path d="M123.825 328.356L100.673 331.754V259.844H123.825V328.356Z" fill="#E7E2FF"/>
<path d="M123.825 309.685L100.673 312.092V257.614H123.825V309.685Z" fill="#CFC9FF"/>
<path d="M6.58228 314.664L179.417 300.555V132.12L6.58228 118.012C3.09621 117.726 0.0838318 120.111 0.0838318 123.156V309.52C0.0838318 312.565 3.09621 314.949 6.58228 314.664Z" fill="#424346"/>
<path d="M10.9445 314.664L183.779 300.555V132.12L10.9445 118.012C7.4571 117.726 4.44604 120.111 4.44604 123.156V309.52C4.44604 312.565 7.4571 314.949 10.9445 314.664Z" fill="#424346"/>
<path d="M14.9505 311.02L181.148 297.521V135.153L14.9505 121.655C11.4644 121.372 8.45465 123.757 8.45465 126.8V305.876C8.45465 308.918 11.4644 311.303 14.9505 311.02Z" fill="#28282C"/>
<path d="M159.414 167.555L68.2932 162.684" stroke="#424346" stroke-width="1.38556" stroke-miterlimit="10" stroke-linecap="round"/>
<path d="M60.0055 162.241L25.2398 160.385" stroke="#424346" stroke-width="1.38556" stroke-miterlimit="10" stroke-linecap="round"/>
<path d="M159.414 233.771L68.2932 235.132" stroke="#E9E4E4" stroke-width="1.38556" stroke-miterlimit="10" stroke-linecap="round"/>
<path d="M60.0055 235.254L39.6248 235.56" stroke="#E9E4E4" stroke-width="1.38556" stroke-miterlimit="10" stroke-linecap="round"/>
<path d="M159.414 252.812L68.2932 255.962" stroke="#424346" stroke-width="1.38556" stroke-miterlimit="10" stroke-linecap="round"/>
<path d="M60.0055 256.249L39.6274 256.953" stroke="#424346" stroke-width="1.38556" stroke-miterlimit="10" stroke-linecap="round"/>
<path d="M140.52 174.31L68.2945 171.018" stroke="#E9E4E4" stroke-width="1.38556" stroke-miterlimit="10" stroke-linecap="round"/>
<path d="M60.0055 170.639L47.4546 170.068" stroke="#E9E4E4" stroke-width="1.38556" stroke-miterlimit="10" stroke-linecap="round"/>
<path d="M140.523 179.054L68.2945 176.11" stroke="#E9E4E4" stroke-width="1.38556" stroke-miterlimit="10" stroke-linecap="round"/>
<path d="M60.0055 175.77L38.0441 174.875" stroke="#E9E4E4" stroke-width="1.38556" stroke-miterlimit="10" stroke-linecap="round"/>
<path d="M140.523 183.799L68.2945 181.202" stroke="#424346" stroke-width="1.38556" stroke-miterlimit="10" stroke-linecap="round"/>
<path d="M60.0055 180.904L47.4546 180.452" stroke="#424346" stroke-width="1.38556" stroke-miterlimit="10" stroke-linecap="round"/>
<path d="M140.523 188.545L68.2945 186.294" stroke="#E9E4E4" stroke-width="1.38556" stroke-miterlimit="10" stroke-linecap="round"/>
<path d="M60.0055 186.035L38.0441 185.352" stroke="#E9E4E4" stroke-width="1.38556" stroke-miterlimit="10" stroke-linecap="round"/>
<path d="M140.523 193.29L68.2945 191.385" stroke="#E9E4E4" stroke-width="1.38556" stroke-miterlimit="10" stroke-linecap="round"/>
<path d="M57.2201 191.094C53.5229 190.996 47.4546 190.836 47.4546 190.836" stroke="#E9E4E4" stroke-width="1.38556" stroke-miterlimit="10" stroke-linecap="round"/>
<path d="M70.0362 222.626C70.0362 222.626 57.5644 222.666 47.1498 222.7" stroke="#E9E4E4" stroke-width="1.38556" stroke-miterlimit="10" stroke-linecap="round"/>
<path d="M114.534 228.464L68.2945 228.882" stroke="#E9E4E4" stroke-width="1.38556" stroke-miterlimit="10" stroke-linecap="round"/>
<path d="M60.0055 228.956L33.2781 229.197" stroke="#E9E4E4" stroke-width="1.38556" stroke-miterlimit="10" stroke-linecap="round"/>
<path d="M103.241 242.667L55.9402 243.745" stroke="#E9E4E4" stroke-width="1.38556" stroke-miterlimit="10" stroke-linecap="round"/>
<path d="M47.4559 243.938L20.0898 244.562" stroke="#E9E4E4" stroke-width="1.38556" stroke-miterlimit="10" stroke-linecap="round"/>
<path d="M103.242 248.71L70.0362 249.663" stroke="#E9E4E4" stroke-width="1.38556" stroke-miterlimit="10" stroke-linecap="round"/>
<path d="M61.7749 249.899L20.0898 251.094" stroke="#E9E4E4" stroke-width="1.38556" stroke-miterlimit="10" stroke-linecap="round"/>
<path d="M84.4924 263.379L70.0362 263.989" stroke="#E9E4E4" stroke-width="1.38556" stroke-miterlimit="10" stroke-linecap="round"/>
<path d="M61.7749 264.337L33.2794 265.542" stroke="#E9E4E4" stroke-width="1.38556" stroke-miterlimit="10" stroke-linecap="round"/>
<path d="M80.1249 269.285L70.0362 269.766" stroke="#E9E4E4" stroke-width="1.38556" stroke-miterlimit="10" stroke-linecap="round"/>
<path d="M61.7749 270.16L25.2411 271.903" stroke="#E9E4E4" stroke-width="1.38556" stroke-miterlimit="10" stroke-linecap="round"/>
<path d="M84.4924 274.775L70.0362 275.543" stroke="#424346" stroke-width="1.38556" stroke-miterlimit="10" stroke-linecap="round"/>
<path d="M61.7749 275.982L33.2794 277.496" stroke="#424346" stroke-width="1.38556" stroke-miterlimit="10" stroke-linecap="round"/>
<path d="M424.075 328.526L498.129 339.634L505.326 335.675L431.273 324.57L424.075 328.526Z" fill="#B5ABEE"/>
<path d="M424.075 328.527V326L429.466 325.594L430.161 328.54L424.075 328.527Z" fill="#B5ABEE"/>
<path d="M505.324 333.15V335.678L502.115 335.883L499.766 335.656L500.418 334.143L505.324 333.15Z" fill="#B5ABEE"/>
<path d="M424.073 325.999L498.126 337.106L505.324 333.148L431.272 322.044L424.073 325.999Z" fill="#E7E2FF"/>
<path d="M456.221 326.331L479.372 329.877V258.708H456.221V326.331Z" fill="#B5ABEE"/>
<path d="M479.372 329.877L475.327 331.754L472.706 328.842L474.013 325.323L478.189 328.129L479.372 329.877Z" fill="#B5ABEE"/>
<path d="M452.174 328.356L475.325 331.754V259.844H452.174V328.356Z" fill="#E7E2FF"/>
<path d="M452.174 309.685L475.325 312.092V257.614H452.174V309.685Z" fill="#CFC9FF"/>
<path d="M569.418 314.664L396.583 300.555V132.12L569.418 118.012C572.905 117.726 575.916 120.111 575.916 123.156V309.52C575.916 312.565 572.905 314.949 569.418 314.664Z" fill="#424346"/>
<path d="M565.057 314.664L392.222 300.555V132.12L565.057 118.012C568.543 117.726 571.555 120.111 571.555 123.156V309.52C571.555 312.565 568.543 314.949 565.057 314.664Z" fill="#424346"/>
<path d="M561.05 311.02L394.853 297.521V135.153L561.05 121.655C564.536 121.372 567.544 123.757 567.544 126.8V305.876C567.544 308.918 564.536 311.303 561.05 311.02Z" fill="#28282C"/>
<path d="M416.585 167.555L507.706 162.684" stroke="#424346" stroke-width="1.38556" stroke-miterlimit="10" stroke-linecap="round"/>
<path d="M515.995 162.241L550.758 160.385" stroke="#424346" stroke-width="1.38556" stroke-miterlimit="10" stroke-linecap="round"/>
<path d="M416.586 233.771L507.704 235.132" stroke="#E9E4E4" stroke-width="1.38556" stroke-miterlimit="10" stroke-linecap="round"/>
<path d="M515.995 235.254L536.373 235.56" stroke="#E9E4E4" stroke-width="1.38556" stroke-miterlimit="10" stroke-linecap="round"/>
<path d="M416.586 252.812L507.704 255.962" stroke="#424346" stroke-width="1.38556" stroke-miterlimit="10" stroke-linecap="round"/>
<path d="M515.995 256.249L536.373 256.953" stroke="#424346" stroke-width="1.38556" stroke-miterlimit="10" stroke-linecap="round"/>
<path d="M435.479 174.31L507.704 171.018" stroke="#E9E4E4" stroke-width="1.38556" stroke-miterlimit="10" stroke-linecap="round"/>
<path d="M515.996 170.639L528.544 170.068" stroke="#E9E4E4" stroke-width="1.38556" stroke-miterlimit="10" stroke-linecap="round"/>
<path d="M458.076 178.133C479.264 177.269 507.704 176.11 507.704 176.11" stroke="#E9E4E4" stroke-width="1.38556" stroke-miterlimit="10" stroke-linecap="round"/>
<path d="M505.964 222.626C505.964 222.626 518.434 222.666 528.846 222.7" stroke="#E9E4E4" stroke-width="1.38556" stroke-miterlimit="10" stroke-linecap="round"/>
<path d="M461.466 228.464L507.706 228.882" stroke="#E9E4E4" stroke-width="1.38556" stroke-miterlimit="10" stroke-linecap="round"/>
<path d="M515.995 228.956L542.719 229.197" stroke="#E9E4E4" stroke-width="1.38556" stroke-miterlimit="10" stroke-linecap="round"/>
<path d="M472.759 242.667L520.06 243.745" stroke="#E9E4E4" stroke-width="1.38556" stroke-miterlimit="10" stroke-linecap="round"/>
<path d="M528.543 243.938L555.909 244.562" stroke="#E9E4E4" stroke-width="1.38556" stroke-miterlimit="10" stroke-linecap="round"/>
<path d="M472.759 248.71L505.963 249.663" stroke="#E9E4E4" stroke-width="1.38556" stroke-miterlimit="10" stroke-linecap="round"/>
<path d="M514.225 249.899L555.91 251.094" stroke="#E9E4E4" stroke-width="1.38556" stroke-miterlimit="10" stroke-linecap="round"/>
<path d="M491.508 263.379L505.964 263.989" stroke="#E9E4E4" stroke-width="1.38556" stroke-miterlimit="10" stroke-linecap="round"/>
<path d="M514.225 264.337L542.721 265.542" stroke="#E9E4E4" stroke-width="1.38556" stroke-miterlimit="10" stroke-linecap="round"/>
<path d="M495.875 269.285L505.964 269.766" stroke="#E9E4E4" stroke-width="1.38556" stroke-miterlimit="10" stroke-linecap="round"/>
<path d="M514.225 270.16L550.756 271.903" stroke="#E9E4E4" stroke-width="1.38556" stroke-miterlimit="10" stroke-linecap="round"/>
<path d="M491.508 274.775L505.964 275.543" stroke="#424346" stroke-width="1.38556" stroke-miterlimit="10" stroke-linecap="round"/>
<path d="M514.225 275.982L542.721 277.496" stroke="#424346" stroke-width="1.38556" stroke-miterlimit="10" stroke-linecap="round"/>
<g opacity="0.500107">
<path d="M344.406 291.366H259.932C254.096 291.366 249.364 287.251 249.364 282.176V132.12H354.976V282.176C354.976 287.251 350.244 291.366 344.406 291.366Z" fill="#424346"/>
</g>
<path d="M334.532 284.852H242.056C235.665 284.852 230.485 280.349 230.485 274.793V92.0354C230.485 86.4798 235.665 81.9761 242.056 81.9761H334.532C340.922 81.9761 346.101 86.4798 346.101 92.0354V274.793C346.101 280.349 340.922 284.852 334.532 284.852Z" fill="white"/>
<path d="M334.532 284.852H242.056C235.665 284.852 230.485 280.349 230.485 274.793V92.0354C230.485 86.4798 235.665 81.9761 242.056 81.9761H334.532C340.922 81.9761 346.101 86.4798 346.101 92.0354V274.793C346.101 280.349 340.922 284.852 334.532 284.852Z" stroke="#424346" stroke-width="3.74684" stroke-miterlimit="10"/>
<path d="M305.23 87.3277H271.355C268.563 87.3277 266.298 85.3592 266.298 82.9307V81.9751H310.287V82.9307C310.287 85.3592 308.023 87.3277 305.23 87.3277Z" fill="#424346"/>
<path d="M317.781 235.414H258.808C251.903 235.414 246.306 230.548 246.306 224.545V131.68C246.306 125.678 251.903 120.812 258.808 120.812H317.781C324.686 120.812 330.283 125.678 330.283 131.68V224.545C330.283 230.548 324.686 235.414 317.781 235.414Z" fill="#F5F3FF"/>
<path d="M309.666 129.067H266.921C266.553 129.067 266.255 128.808 266.255 128.489C266.255 128.167 266.553 127.908 266.921 127.908H309.666C310.033 127.908 310.331 128.167 310.331 128.489C310.331 128.808 310.033 129.067 309.666 129.067Z" fill="#282727"/>
<path d="M282.037 132.508H266.786C266.655 132.508 266.549 132.249 266.549 131.929C266.549 131.609 266.655 131.35 266.786 131.35H282.037C282.168 131.35 282.274 131.609 282.274 131.929C282.274 132.249 282.168 132.508 282.037 132.508Z" fill="#282727"/>
<path d="M338.704 103.583C338.704 106.484 335.997 108.836 332.662 108.836C329.325 108.836 326.62 106.484 326.62 103.583C326.62 100.682 329.325 98.3301 332.662 98.3301C335.997 98.3301 338.704 100.682 338.704 103.583Z" fill="#282727"/>
<path d="M250.199 192.631H226.268C221.729 192.631 218.048 189.432 218.048 185.486V164.68C218.048 160.734 221.729 157.533 226.268 157.533H250.199C254.738 157.533 258.419 160.734 258.419 164.68V185.486C258.419 189.432 254.738 192.631 250.199 192.631Z" fill="#282727"/>
<path d="M247.919 175.081C247.919 179.733 243.584 183.503 238.233 183.503C232.883 183.503 228.547 179.733 228.547 175.081C228.547 170.431 232.883 166.66 238.233 166.66C243.584 166.66 247.919 170.431 247.919 175.081Z" fill="#424346"/>
<path d="M298.478 192.631H274.548C270.009 192.631 266.329 189.432 266.329 185.486V164.68C266.329 160.734 270.009 157.533 274.548 157.533H298.478C303.017 157.533 306.697 160.734 306.697 164.68V185.486C306.697 189.432 303.017 192.631 298.478 192.631Z" fill="#282727"/>
<path d="M293.725 183.335H279.302C277.605 183.335 276.502 181.781 277.261 180.462L284.472 167.925C285.314 166.462 287.714 166.462 288.556 167.925L295.766 180.462C296.525 181.781 295.421 183.335 293.725 183.335Z" fill="#282727"/>
<path d="M346.757 192.631H322.826C318.287 192.631 314.607 189.432 314.607 185.486V164.68C314.607 160.734 318.287 157.533 322.826 157.533H346.757C351.296 157.533 354.976 160.734 354.976 164.68V185.486C354.976 189.432 351.296 192.631 346.757 192.631Z" fill="#282727"/>
<path d="M341.575 182.819H328.009C326.84 182.819 325.893 181.994 325.893 180.979V169.185C325.893 168.169 326.84 167.344 328.009 167.344H341.575C342.745 167.344 343.69 168.169 343.69 169.185V180.979C343.69 181.994 342.745 182.819 341.575 182.819Z" fill="#424346"/>
<path d="M317.86 266.718H258.727C253.89 266.718 249.967 263.307 249.967 259.101C249.967 254.895 253.89 251.486 258.727 251.486H317.86C322.697 251.486 326.619 254.895 326.619 259.101C326.619 263.307 322.697 266.718 317.86 266.718Z" fill="#282727"/>
<path d="M317.86 243.029H258.727C253.89 243.029 249.967 239.618 249.967 235.412C249.967 231.206 253.89 227.797 258.727 227.797H317.86C322.697 227.797 326.619 231.206 326.619 235.412C326.619 239.618 322.697 243.029 317.86 243.029Z" fill="#1E40AF"/>
</svg>
