<svg width="30" height="30" viewBox="0 0 30 30" fill="none" xmlns="http://www.w3.org/2000/svg">
<path d="M28.1429 0.714355H1.85715C1.22501 0.714355 0.714294 1.22507 0.714294 1.85721V28.1429C0.714294 28.7751 1.22501 29.2858 1.85715 29.2858H28.1429C28.775 29.2858 29.2857 28.7751 29.2857 28.1429V1.85721C29.2857 1.22507 28.775 0.714355 28.1429 0.714355ZM9.18929 25.0608H4.95001V11.4251H9.18929V25.0608ZM7.07144 9.56079C6.58546 9.56079 6.1104 9.41668 5.70632 9.14668C5.30225 8.87669 4.98731 8.49293 4.80133 8.04395C4.61536 7.59496 4.5667 7.10092 4.66151 6.62428C4.75632 6.14764 4.99034 5.70982 5.33398 5.36618C5.67761 5.02254 6.11543 4.78852 6.59207 4.69371C7.06871 4.5989 7.56276 4.64756 8.01175 4.83354C8.46073 5.01951 8.84448 5.33445 9.11448 5.73853C9.38447 6.1426 9.52858 6.61766 9.52858 7.10364C9.52501 8.46078 8.42501 9.56079 7.07144 9.56079ZM25.0607 25.0608H20.825V18.4286C20.825 16.8465 20.7964 14.8144 18.6214 14.8144C16.4179 14.8144 16.0786 16.5358 16.0786 18.3144V25.0608H11.8464V11.4251H15.9107V13.2894H15.9679C16.5322 12.2179 17.9143 11.0858 19.9786 11.0858C24.2714 11.0858 25.0607 13.9108 25.0607 17.5822V25.0608Z" fill="#22C55E"/>
</svg>
