<svg width="30" height="30" viewBox="0 0 30 30" fill="none" xmlns="http://www.w3.org/2000/svg">
<path d="M15 10.2395C12.3785 10.2395 10.2393 12.3788 10.2393 15.0002C10.2393 17.6216 12.3785 19.7609 15 19.7609C17.6214 19.7609 19.7607 17.6216 19.7607 15.0002C19.7607 12.3788 17.6214 10.2395 15 10.2395ZM29.2785 15.0002C29.2785 13.0288 29.2964 11.0752 29.1857 9.10733C29.075 6.82161 28.5535 4.79304 26.8821 3.12161C25.2071 1.44661 23.1821 0.928755 20.8964 0.81804C18.925 0.707326 16.9714 0.725183 15.0035 0.725183C13.0321 0.725183 11.0785 0.707326 9.11068 0.81804C6.82497 0.928755 4.7964 1.45018 3.12497 3.12161C1.44997 4.79661 0.932112 6.82161 0.821397 9.10733C0.710683 11.0788 0.72854 13.0323 0.72854 15.0002C0.72854 16.968 0.710683 18.9252 0.821397 20.893C0.932112 23.1788 1.45354 25.2073 3.12497 26.8788C4.79997 28.5538 6.82497 29.0716 9.11068 29.1823C11.0821 29.293 13.0357 29.2752 15.0035 29.2752C16.975 29.2752 18.9285 29.293 20.8964 29.1823C23.1821 29.0716 25.2107 28.5502 26.8821 26.8788C28.5571 25.2038 29.075 23.1788 29.1857 20.893C29.3 18.9252 29.2785 16.9716 29.2785 15.0002ZM15 22.3252C10.9464 22.3252 7.67497 19.0538 7.67497 15.0002C7.67497 10.9466 10.9464 7.67518 15 7.67518C19.0535 7.67518 22.325 10.9466 22.325 15.0002C22.325 19.0538 19.0535 22.3252 15 22.3252ZM22.625 9.0859C21.6785 9.0859 20.9143 8.32161 20.9143 7.37518C20.9143 6.42875 21.6785 5.66447 22.625 5.66447C23.5714 5.66447 24.3357 6.42875 24.3357 7.37518C24.336 7.59992 24.2919 7.8225 24.206 8.03018C24.1202 8.23786 23.9942 8.42656 23.8353 8.58547C23.6763 8.74438 23.4876 8.87038 23.28 8.95625C23.0723 9.04212 22.8497 9.08618 22.625 9.0859Z" fill="black"/>
</svg>
