<svg width="30" height="30" viewBox="0 0 30 30" fill="none" xmlns="http://www.w3.org/2000/svg">
<path d="M28.1429 0.714355H1.85715C1.22501 0.714355 0.714294 1.22507 0.714294 1.85721V28.1429C0.714294 28.7751 1.22501 29.2858 1.85715 29.2858H28.1429C28.775 29.2858 29.2857 28.7751 29.2857 28.1429V1.85721C29.2857 1.22507 28.775 0.714355 28.1429 0.714355ZM22.6893 11.0608C22.7 11.2286 22.7 11.4036 22.7 11.5751C22.7 16.8179 18.7072 22.8572 11.4107 22.8572C9.16072 22.8572 7.07501 22.2036 5.31787 21.0786C5.63929 21.1144 5.94644 21.1286 6.27501 21.1286C8.13215 21.1286 9.8393 20.5001 11.2 19.4358C9.45715 19.4001 7.99287 18.2572 7.49287 16.6858C8.10358 16.7751 8.65358 16.7751 9.28215 16.6144C8.38475 16.432 7.57813 15.9447 6.99935 15.235C6.42057 14.5254 6.10532 13.6372 6.10715 12.7215V12.6715C6.63215 12.9679 7.25001 13.1501 7.89644 13.1751C7.35302 12.8129 6.90736 12.3223 6.59898 11.7466C6.2906 11.171 6.12902 10.5281 6.12858 9.87507C6.12858 9.13578 6.32144 8.46078 6.66787 7.87507C7.66395 9.10127 8.9069 10.1041 10.316 10.8185C11.725 11.5329 13.2686 11.9428 14.8464 12.0215C14.2857 9.32507 16.3 7.14293 18.7214 7.14293C19.8643 7.14293 20.8929 7.6215 21.6179 8.39293C22.5143 8.22507 23.3714 7.88936 24.1357 7.43936C23.8393 8.35721 23.2179 9.13221 22.3929 9.6215C23.1929 9.53578 23.9643 9.31436 24.6786 9.00364C24.1393 9.7965 23.4643 10.5001 22.6893 11.0608Z" fill="black"/>
</svg>
